<svg width="55" height="55" viewBox="0 0 55 55" fill="none" xmlns="http://www.w3.org/2000/svg">
<path d="M23.2031 48.125H8.59375C8.36583 48.125 8.14724 48.0345 7.98608 47.8733C7.82492 47.7121 7.73438 47.4936 7.73438 47.2656V28.3594C7.73438 28.1315 7.82492 27.9129 7.98608 27.7517C8.14724 27.5906 8.36583 27.5 8.59375 27.5H20.625V17.1875H8.59375C8.36583 17.1875 8.14724 17.097 7.98608 16.9358C7.82492 16.7746 7.73438 16.5561 7.73438 16.3281V4.29689C7.73438 4.06897 7.82492 3.85038 7.98608 3.68922C8.14724 3.52806 8.36583 3.43751 8.59375 3.43751H32.6562C32.7693 3.43686 32.8815 3.45854 32.9862 3.5013C33.0909 3.54407 33.1861 3.60709 33.2664 3.68673L40.1414 10.5617C40.2211 10.642 40.2841 10.7373 40.3268 10.842C40.3696 10.9467 40.3913 11.0588 40.3906 11.1719V33.5156C40.3906 33.7436 40.3001 33.9621 40.1389 34.1233C39.9778 34.2845 39.7592 34.375 39.5312 34.375H24.0625V47.2656C24.0625 47.4936 23.972 47.7121 23.8108 47.8733C23.6496 48.0345 23.431 48.125 23.2031 48.125ZM9.45312 46.4063H22.3437V33.5156C22.3437 33.2877 22.4343 33.0691 22.5955 32.908C22.7566 32.7468 22.9752 32.6563 23.2031 32.6563H38.6719V11.5242L32.3039 5.15626H9.45312V15.4688H21.4844C21.7123 15.4688 21.9309 15.5593 22.092 15.7205C22.2532 15.8816 22.3437 16.1002 22.3437 16.3281V28.3594C22.3437 28.5873 22.2532 28.8059 22.092 28.9671C21.9309 29.1282 21.7123 29.2188 21.4844 29.2188H9.45312V46.4063Z" fill="#0E2258"/>
<path d="M50.7031 51.5625H23.2031C22.9752 51.5625 22.7566 51.472 22.5955 51.3108C22.4343 51.1496 22.3438 50.931 22.3438 50.7031V33.5156C22.3438 33.2877 22.4343 33.0691 22.5955 32.908C22.7566 32.7468 22.9752 32.6562 23.2031 32.6562H50.7031C50.931 32.6562 51.1496 32.7468 51.3108 32.908C51.472 33.0691 51.5625 33.2877 51.5625 33.5156V50.7031C51.5625 50.931 51.472 51.1496 51.3108 51.3108C51.1496 51.472 50.931 51.5625 50.7031 51.5625ZM24.0625 49.8438H49.8438V34.375H24.0625V49.8438ZM21.4844 29.2188H4.29688C4.06895 29.2188 3.85037 29.1282 3.68921 28.967C3.52804 28.8059 3.4375 28.5873 3.4375 28.3594V16.3281C3.4375 16.1002 3.52804 15.8816 3.68921 15.7205C3.85037 15.5593 4.06895 15.4688 4.29688 15.4688H21.4844C21.7123 15.4688 21.9309 15.5593 22.092 15.7205C22.2532 15.8816 22.3438 16.1002 22.3438 16.3281V28.3594C22.3438 28.5873 22.2532 28.8059 22.092 28.967C21.9309 29.1282 21.7123 29.2188 21.4844 29.2188ZM5.15625 27.5H20.625V17.1875H5.15625V27.5ZM47.1969 31.7969C47.0642 31.7945 46.9338 31.7615 46.8161 31.7004C46.6983 31.6393 46.5962 31.5517 46.518 31.4445L44.0086 28.007C43.8957 27.8617 43.8324 27.684 43.8281 27.5V9.45312C43.8281 8.99728 44.0092 8.56011 44.3315 8.23779C44.6539 7.91546 45.091 7.73437 45.5469 7.73438H48.9844C49.4402 7.73438 49.8774 7.91546 50.1997 8.23779C50.522 8.56011 50.7031 8.99728 50.7031 9.45312V27.5C50.7025 27.6899 50.6391 27.8742 50.5227 28.0242L47.8758 31.4617C47.7957 31.5657 47.6929 31.65 47.5752 31.7081C47.4575 31.7662 47.3281 31.7966 47.1969 31.7969ZM45.5469 27.2164L47.2141 29.5023L48.9844 27.2078V9.45312H45.5469V27.2164Z" fill="#0E2258"/>
<path d="M48.9844 9.45312H45.5469C45.319 9.45312 45.1004 9.36258 44.9392 9.20142C44.778 9.04026 44.6875 8.82167 44.6875 8.59375V6.01562C44.6875 5.33186 44.9591 4.67611 45.4426 4.19262C45.9261 3.70912 46.5819 3.4375 47.2656 3.4375C47.9494 3.4375 48.6051 3.70912 49.0886 4.19262C49.5721 4.67611 49.8438 5.33186 49.8438 6.01562V8.59375C49.8438 8.82167 49.7532 9.04026 49.592 9.20142C49.4309 9.36258 49.2123 9.45312 48.9844 9.45312ZM46.4062 7.73438H48.125V6.01562C48.125 5.7877 48.0345 5.56912 47.8733 5.40796C47.7121 5.24679 47.4935 5.15625 47.2656 5.15625C47.0377 5.15625 46.8191 5.24679 46.658 5.40796C46.4968 5.56912 46.4062 5.7877 46.4062 6.01562V7.73438ZM9.45313 24.0625C8.94322 24.0625 8.44477 23.9113 8.0208 23.628C7.59683 23.3447 7.26638 22.9421 7.07125 22.471C6.87612 21.9999 6.82506 21.4815 6.92454 20.9814C7.02402 20.4813 7.26956 20.0219 7.63012 19.6614C7.99067 19.3008 8.45005 19.0553 8.95016 18.9558C9.45027 18.8563 9.96864 18.9074 10.4397 19.1025C10.9108 19.2976 11.3135 19.6281 11.5968 20.052C11.88 20.476 12.0313 20.9745 12.0313 21.4844C12.0313 22.1681 11.7596 22.8239 11.2761 23.3074C10.7926 23.7909 10.1369 24.0625 9.45313 24.0625ZM9.45313 20.625C9.28316 20.625 9.11701 20.6754 8.97568 20.7698C8.83436 20.8643 8.72421 20.9985 8.65917 21.1555C8.59412 21.3125 8.5771 21.4853 8.61026 21.652C8.64342 21.8187 8.72527 21.9719 8.84546 22.092C8.96564 22.2122 9.11877 22.2941 9.28547 22.3272C9.45217 22.3604 9.62496 22.3434 9.782 22.2783C9.93903 22.2133 10.0732 22.1031 10.1677 21.9618C10.2621 21.8205 10.3125 21.6543 10.3125 21.4844C10.3125 21.2565 10.222 21.0379 10.0608 20.8767C9.89963 20.7155 9.68105 20.625 9.45313 20.625ZM18.0469 23.2031H14.6094C14.3815 23.2031 14.1629 23.1126 14.0017 22.9514C13.8405 22.7903 13.75 22.5717 13.75 22.3438C13.75 22.1158 13.8405 21.8972 14.0017 21.7361C14.1629 21.5749 14.3815 21.4844 14.6094 21.4844H18.0469C18.2748 21.4844 18.4934 21.5749 18.6545 21.7361C18.8157 21.8972 18.9063 22.1158 18.9063 22.3438C18.9063 22.5717 18.8157 22.7903 18.6545 22.9514C18.4934 23.1126 18.2748 23.2031 18.0469 23.2031ZM18.0469 25.7812H14.6094C14.3815 25.7812 14.1629 25.6907 14.0017 25.5295C13.8405 25.3684 13.75 25.1498 13.75 24.9219C13.75 24.694 13.8405 24.4754 14.0017 24.3142C14.1629 24.153 14.3815 24.0625 14.6094 24.0625H18.0469C18.2748 24.0625 18.4934 24.153 18.6545 24.3142C18.8157 24.4754 18.9063 24.694 18.9063 24.9219C18.9063 25.1498 18.8157 25.3684 18.6545 25.5295C18.4934 25.6907 18.2748 25.7812 18.0469 25.7812ZM15.4688 13.75C14.7889 13.75 14.1243 13.5484 13.559 13.1707C12.9937 12.793 12.5531 12.2561 12.2929 11.628C12.0327 10.9999 11.9647 10.3087 12.0973 9.64188C12.2299 8.97507 12.5573 8.36256 13.0381 7.88182C13.5188 7.40108 14.1313 7.07369 14.7981 6.94105C15.4649 6.80841 16.1561 6.87649 16.7842 7.13666C17.4123 7.39684 17.9492 7.83743 18.3269 8.40273C18.7046 8.96802 18.9063 9.63263 18.9063 10.3125C18.9063 11.2242 18.5441 12.0985 17.8994 12.7432C17.2548 13.3878 16.3804 13.75 15.4688 13.75ZM15.4688 8.59375C15.1288 8.59375 14.7965 8.69455 14.5139 8.88341C14.2312 9.07227 14.0109 9.3407 13.8808 9.65476C13.7507 9.96882 13.7167 10.3144 13.783 10.6478C13.8493 10.9812 14.013 11.2875 14.2534 11.5278C14.4938 11.7682 14.8 11.9319 15.1334 11.9982C15.4668 12.0645 15.8124 12.0305 16.1265 11.9004C16.4405 11.7703 16.709 11.55 16.8978 11.2674C17.0867 10.9847 17.1875 10.6524 17.1875 10.3125C17.1875 9.85666 17.0064 9.41949 16.6841 9.09716C16.3618 8.77483 15.9246 8.59375 15.4688 8.59375ZM29.2188 9.45312H21.4844C21.2565 9.45312 21.0379 9.36258 20.8767 9.20142C20.7155 9.04026 20.625 8.82167 20.625 8.59375C20.625 8.36583 20.7155 8.14724 20.8767 7.98608C21.0379 7.82492 21.2565 7.73438 21.4844 7.73438H29.2188C29.4467 7.73438 29.6653 7.82492 29.8264 7.98608C29.9876 8.14724 30.0781 8.36583 30.0781 8.59375C30.0781 8.82167 29.9876 9.04026 29.8264 9.20142C29.6653 9.36258 29.4467 9.45312 29.2188 9.45312ZM25.7813 12.8906H21.4844C21.2565 12.8906 21.0379 12.8001 20.8767 12.6389C20.7155 12.4778 20.625 12.2592 20.625 12.0312C20.625 11.8033 20.7155 11.5847 20.8767 11.4236C21.0379 11.2624 21.2565 11.1719 21.4844 11.1719H25.7813C26.0092 11.1719 26.2278 11.2624 26.3889 11.4236C26.5501 11.5847 26.6406 11.8033 26.6406 12.0312C26.6406 12.2592 26.5501 12.4778 26.3889 12.6389C26.2278 12.8001 26.0092 12.8906 25.7813 12.8906ZM39.5312 12.0312H32.6563C32.4283 12.0312 32.2097 11.9407 32.0486 11.7795C31.8874 11.6184 31.7969 11.3998 31.7969 11.1719V4.29688C31.7977 4.12721 31.8488 3.9616 31.9436 3.8209C32.0384 3.6802 32.1728 3.57072 32.3297 3.50625C32.4862 3.44044 32.6587 3.42246 32.8254 3.45458C32.9921 3.4867 33.1456 3.56747 33.2664 3.68672L40.1414 10.5617C40.2607 10.6826 40.3414 10.836 40.3736 11.0027C40.4057 11.1694 40.3877 11.3419 40.3219 11.4984C40.2574 11.6554 40.1479 11.7897 40.0072 11.8845C39.8665 11.9794 39.7009 12.0304 39.5312 12.0312ZM33.5156 10.3125H37.4602L33.5156 6.36797V10.3125ZM36.9531 41.25C36.8186 41.2492 36.6861 41.2168 36.5664 41.1555L22.8164 34.2805C22.6305 34.1686 22.4938 33.9905 22.4337 33.782C22.3736 33.5735 22.3947 33.35 22.4926 33.1564C22.5905 32.9627 22.758 32.8133 22.9615 32.738C23.1651 32.6628 23.3895 32.6674 23.5898 32.7508L36.9531 39.4281L50.3164 32.7508C50.4177 32.6899 50.5304 32.6505 50.6476 32.6351C50.7647 32.6197 50.8838 32.6286 50.9974 32.6613C51.1109 32.6941 51.2165 32.7498 51.3075 32.8252C51.3986 32.9006 51.4731 32.9939 51.5264 33.0994C51.5797 33.2048 51.6107 33.3202 51.6175 33.4381C51.6242 33.5561 51.6065 33.6742 51.5656 33.7851C51.5246 33.8959 51.4612 33.9971 51.3793 34.0824C51.2975 34.1676 51.1989 34.235 51.0898 34.2805L37.3398 41.1555C37.2201 41.2168 37.0877 41.2492 36.9531 41.25ZM28.7891 48.125C28.1942 48.125 27.6126 47.9486 27.118 47.6181C26.6234 47.2876 26.2379 46.8178 26.0102 46.2682C25.7826 45.7186 25.723 45.1138 25.839 44.5304C25.9551 43.9469 26.2416 43.411 26.6622 42.9903C27.0829 42.5697 27.6188 42.2832 28.2023 42.1672C28.7857 42.0511 29.3905 42.1107 29.9401 42.3383C30.4897 42.566 30.9595 42.9515 31.29 43.4461C31.6205 43.9408 31.7969 44.5223 31.7969 45.1172C31.7969 45.9149 31.48 46.68 30.9159 47.244C30.3518 47.8081 29.5868 48.125 28.7891 48.125ZM28.7891 43.8281C28.5341 43.8281 28.2849 43.9037 28.0729 44.0454C27.8609 44.187 27.6957 44.3883 27.5981 44.6239C27.5006 44.8594 27.475 45.1186 27.5248 45.3687C27.5745 45.6187 27.6973 45.8484 27.8776 46.0287C28.0578 46.209 28.2875 46.3317 28.5376 46.3815C28.7876 46.4312 29.0468 46.4057 29.2824 46.3081C29.5179 46.2106 29.7192 46.0453 29.8609 45.8334C30.0025 45.6214 30.0781 45.3721 30.0781 45.1172C30.0781 44.7753 29.9423 44.4474 29.7006 44.2057C29.4588 43.9639 29.1309 43.8281 28.7891 43.8281ZM42.1094 44.6875H34.375C34.1471 44.6875 33.9285 44.597 33.7673 44.4358C33.6062 44.2746 33.5156 44.056 33.5156 43.8281C33.5156 43.6002 33.6062 43.3816 33.7673 43.2205C33.9285 43.0593 34.1471 42.9688 34.375 42.9688H42.1094C42.3373 42.9688 42.5559 43.0593 42.717 43.2205C42.8782 43.3816 42.9688 43.6002 42.9688 43.8281C42.9688 44.056 42.8782 44.2746 42.717 44.4358C42.5559 44.597 42.3373 44.6875 42.1094 44.6875ZM38.6719 48.125H34.375C34.1471 48.125 33.9285 48.0345 33.7673 47.8733C33.6062 47.7121 33.5156 47.4935 33.5156 47.2656C33.5156 47.0377 33.6062 46.8191 33.7673 46.658C33.9285 46.4968 34.1471 46.4062 34.375 46.4062H38.6719C38.8998 46.4062 39.1184 46.4968 39.2795 46.658C39.4407 46.8191 39.5312 47.0377 39.5312 47.2656C39.5312 47.4935 39.4407 47.7121 39.2795 47.8733C39.1184 48.0345 38.8998 48.125 38.6719 48.125Z" fill="#0E2258"/>
</svg>
