<svg width="70" height="70" viewBox="0 0 70 70" fill="none" xmlns="http://www.w3.org/2000/svg">
<g clip-path="url(#clip0_336_34)">
<path d="M19.9336 0.136711C18.8535 0.464836 18.1016 1.35351 17.9785 2.4746C17.9375 2.80273 17.8145 5.72851 17.6914 8.96875L17.4863 14.875L20.3711 27.207C21.9707 33.9883 23.2285 39.5664 23.1875 39.6211C23.1328 39.6621 22.75 39.7441 22.3125 39.7988C21.8887 39.8535 21.3145 39.9355 21.0547 39.9766L20.5762 40.0723L17.4316 32.4434C15.709 28.2598 14.1641 24.6504 14.0137 24.418C13.5762 23.7617 13.0703 23.4746 12.2773 23.4199C11.5938 23.3652 11.2246 23.5019 6.42579 25.4844C3.60938 26.6602 1.14844 27.7266 0.957036 27.8769C0.765629 28.0137 0.505864 28.3144 0.355473 28.5605C-0.205074 29.5312 -0.218745 29.4902 4.42969 40.7012C6.8086 46.4297 8.75 51.1738 8.75 51.2422C8.75 51.3105 8.40821 51.4062 7.98438 51.4609C5.67383 51.7344 3.25391 53.1973 1.84571 55.166C0.0546918 57.6816 -0.451167 60.7578 0.492192 63.5469C1.01172 65.0918 1.5586 65.9668 2.78907 67.2109C4.01954 68.4414 4.86719 68.9746 6.49415 69.5488L7.5879 69.9316H34.9316H62.2754L63.3691 69.5625C66.3633 68.5234 68.5508 66.2812 69.4805 63.3008C69.8906 61.9746 69.918 59.4453 69.5352 58.1738C69.084 56.6426 68.25 55.248 67.1289 54.1406C65.502 52.5273 63.6563 51.625 61.5781 51.4199C61.0313 51.3652 60.5527 51.2969 60.5117 51.2559C60.4707 51.2148 60.5117 50.5723 60.5938 49.834C60.7031 48.8086 60.6895 48.0703 60.5664 46.8809L60.4023 45.2949L62.5488 40.1133C63.7383 37.2695 65.1191 33.9062 65.6387 32.6484C66.8418 29.6953 67.5938 28.3555 69.1387 26.373C70.1094 25.1152 70.123 25.375 68.8242 19.7148C68.0996 16.6113 67.5664 14.6016 67.4297 14.4375C67.0879 14.0684 66.6367 13.9316 66.2129 14.0957C65.6113 14.3144 57.9414 19.1406 57.4629 19.5918C57.2031 19.8379 56.9844 20.1934 56.957 20.4258C56.3145 24.582 56.2051 24.9785 54.0449 30.2012C53.0879 32.498 52.3086 34.3984 52.2949 34.4121C52.2813 34.4394 51.7617 34.2344 51.1191 33.9609C50.4902 33.7012 49.5742 33.3594 49.082 33.2363C48.043 32.9492 48.0977 33.3047 48.4531 29.7773C48.5762 28.4375 48.6992 26.0723 48.6992 24.4453L48.7129 21.5332L49.3145 20.6855C51.8301 17.1309 52.3086 12.4961 50.5859 8.35351C49.4922 5.68749 47.332 2.73437 45.0762 0.792961C44.0371 -0.109383 43.5859 -0.205086 42.9844 0.314445C42.5879 0.669914 42.5606 0.847649 42.7246 2.39257C42.8613 3.63671 42.6699 4.55273 41.9727 5.94726C41.3438 7.21875 40.1816 8.80468 38.5 10.7187C36.7363 12.7285 36.2305 13.8769 36.2305 15.9414C36.2305 17.5684 36.7773 19.1406 37.8848 20.5898L38.3086 21.1641L38.0215 23.2559C37.584 26.5644 37.4609 28.2871 37.4609 31.541V34.5625L36.8731 34.9043C36.5449 35.0957 35.9023 35.5469 35.4238 35.8887C34.959 36.2441 34.5625 36.5176 34.5352 36.4902C34.5215 36.4629 33.2637 31.0762 31.7324 24.541C30.2148 17.9922 28.8477 12.373 28.6973 12.0312C28.5332 11.6894 27.1797 9.13281 25.6758 6.35742C22.791 1.01171 22.3809 0.42382 21.3828 0.150383C20.7676 -0.0136795 20.4531 -0.0273514 19.9336 0.136711ZM22.1211 4.73046C22.8047 6.00195 23.3789 7.08203 23.3789 7.13671C23.3789 7.1914 23.1191 7.41015 22.8047 7.61523C22.3125 7.94336 22.1074 7.99804 21.2051 7.99804H20.166L20.2207 5.33202C20.2617 2.76171 20.3438 2.25585 20.6992 2.36523C20.7813 2.39257 21.4238 3.4453 22.1211 4.73046ZM46.6074 5.94726C47.9336 7.86132 48.9043 10.2402 49.2324 12.332C49.5742 14.5605 48.7266 17.623 47.1816 19.6738L46.9219 20.0019L43.4629 19.7969L40.0039 19.5918L39.6758 19.1953C39.4981 18.9766 39.1836 18.457 38.9922 18.0469C38.6777 17.4043 38.6231 17.1172 38.6231 16.0644C38.6231 14.4375 38.9238 13.8086 40.7285 11.6894C43.0938 8.92773 44.6934 6.26171 44.9258 4.67577L45.0078 4.07421L45.4863 4.53905C45.7324 4.78515 46.2383 5.41405 46.6074 5.94726ZM25.5801 11.0742C26.0996 12.0176 26.5098 12.8789 26.5234 12.9883C26.5234 13.7949 25.2383 15.3945 24.2539 15.8047C23.0645 16.3105 21.2188 15.873 20.2754 14.875L19.8242 14.4102L19.9199 12.4004L20.002 10.3906H21.082C22.2305 10.3906 23.3652 10.0762 24.0352 9.58398C24.2402 9.43359 24.459 9.32421 24.5273 9.33789C24.5957 9.36523 25.0742 10.1445 25.5801 11.0742ZM29.9961 27.3574C31.3906 33.3457 32.5391 38.3359 32.5391 38.4453C32.5391 38.5547 32.2109 39.1426 31.8008 39.7441C31.4043 40.3457 31.0352 40.9336 31.0078 41.0293C30.9668 41.1387 30.9121 41.1934 30.8711 41.1523C30.8301 41.1113 30.0645 37.8848 29.1484 33.9883C27.8223 28.3144 27.4258 26.8242 27.1797 26.5644C26.5645 25.9082 25.293 26.3594 25.293 27.248C25.293 27.4941 25.9492 30.5019 26.7422 33.9473C27.5488 37.3789 28.1777 40.2227 28.1367 40.2637C28.082 40.3184 25.8398 39.8125 25.7305 39.7168C25.6621 39.6484 20.6445 18.1426 20.6992 18.0879C20.7266 18.0605 21.0957 18.1289 21.5469 18.2519C21.9844 18.3613 22.5176 18.457 22.7227 18.457C23.1465 18.457 23.1191 18.416 23.6797 20.8496C24.0352 22.4082 24.3223 22.832 25.0606 22.832C25.5664 22.832 26.0723 22.4492 26.1816 21.9707C26.2363 21.793 26.0723 20.8633 25.8535 19.9062C25.6211 18.9355 25.4297 18.0742 25.4297 17.9785C25.4297 17.8828 25.5938 17.7324 25.8125 17.6504C26.0176 17.5684 26.4688 17.2539 26.7969 16.9668C27.1387 16.666 27.4258 16.4473 27.4258 16.4609C27.4395 16.4609 28.6016 21.3691 29.9961 27.3574ZM63.1777 20.3164C62.125 22.8594 62.0977 23.4473 63.0273 23.7617C63.5742 23.9531 64.2031 23.7344 64.4492 23.2559C64.6133 22.9551 65.625 20.5215 66.0625 19.4141C66.1992 19.0859 66.1992 19.0859 66.3086 19.3457C66.3633 19.4961 66.6641 20.7402 66.9785 22.1074L67.5527 24.6094L67.0879 25.1836C66.377 26.0723 65.4609 27.5352 64.75 28.9434C64.1211 30.2012 64.1211 30.2012 63.4102 30.4199C62.4668 30.6934 61.7285 30.6797 60.6621 30.3516C59.6094 30.0234 58.4883 29.0937 57.9688 28.1367L57.6543 27.5488L58.1465 26.0449C58.5977 24.623 58.9395 23.1191 59.1309 21.7383L59.2266 21.123L61.5645 19.6602C62.8496 18.8535 63.9297 18.2246 63.957 18.2519C63.9844 18.2793 63.6289 19.209 63.1777 20.3164ZM45.0625 22.2441L46.3066 22.3262L46.3887 23.1055C46.4297 23.543 46.416 24.2949 46.3887 24.8008L46.3066 25.7031L44.4473 25.6894C42.5195 25.6758 40.1133 25.4434 40.1406 25.2519C40.1406 25.1973 40.2363 24.4316 40.332 23.5566L40.5098 21.9707L42.1641 22.0664C43.0664 22.1074 44.3789 22.1894 45.0625 22.2441ZM12.5645 26.7559C12.7969 27.3301 12.9746 27.8086 12.9473 27.8359C12.9336 27.8496 11.9219 28.2734 10.6914 28.7793C8.24415 29.791 7.84766 30.1055 7.98438 30.8301C8.08008 31.3086 8.64063 31.8555 9.03711 31.8555C9.20118 31.8555 10.3496 31.4316 11.6074 30.9121L13.9043 29.9824L14.3281 31.0078C14.5606 31.582 14.7246 32.0742 14.6973 32.1289C14.6699 32.1836 14.3418 32.334 13.9863 32.4707C12.291 33.0996 11.8945 33.4414 11.8945 34.1934C11.8945 34.5625 12.6191 35.2734 12.9883 35.2734C13.1523 35.2734 13.8086 35.0547 14.4512 34.7949C15.0938 34.5215 15.6406 34.3301 15.668 34.3437C15.7637 34.4394 16.5566 36.3945 16.5156 36.4355C16.4883 36.4629 15.4902 36.8867 14.2871 37.3789C13.084 37.8848 11.9766 38.418 11.8398 38.5547C11.416 38.9648 11.4707 39.7441 11.9492 40.1406C12.1543 40.3184 12.4688 40.4687 12.6328 40.4687C12.8106 40.4687 13.9316 40.0723 15.1074 39.5801C16.2832 39.0879 17.3223 38.7051 17.3906 38.7187C17.541 38.7734 18.3203 40.5234 18.3203 40.8105C18.3203 40.9062 18.1289 41.0566 17.8965 41.1523C17.6641 41.248 17.0898 41.5762 16.6387 41.877C14.1231 43.5039 12.3184 45.8008 11.2793 48.6992C11.0469 49.3828 10.8008 49.8887 10.7734 49.8203C10.7324 49.752 8.83204 45.2129 6.5625 39.7168C3.25391 31.7461 2.46094 29.7227 2.61133 29.6269C2.83008 29.4902 11.9219 25.7168 12.0449 25.7031C12.0996 25.7031 12.332 26.1816 12.5645 26.7559ZM44.4063 28.0273L46.2109 28.041V28.6152C46.2109 28.9297 46.1152 29.9277 46.0059 30.8301C45.8965 31.7324 45.8008 32.5117 45.8008 32.5664C45.8008 32.6348 45.3496 32.6758 44.8164 32.6758C43.3398 32.6758 41.959 32.9082 40.0996 33.4414L39.7852 33.5234V31.0898C39.7852 29.7363 39.8262 28.4238 39.8672 28.1641L39.9492 27.6719L41.2617 27.8496C42 27.9453 43.4082 28.0273 44.4063 28.0273ZM58.3516 31.8691C59.2813 32.457 60.9492 32.9492 62.0156 32.9492C62.4941 32.9492 62.8906 33.0039 62.8906 33.0859C62.8906 33.25 59.459 41.5898 59.3223 41.7539C59.2676 41.8223 59.0352 41.5078 58.8164 41.0703C57.9824 39.4297 56.4648 37.5566 54.9199 36.2852L54.2637 35.7383L55.3848 33.0449L56.4922 30.3516L57.0938 30.8984C57.4219 31.1992 57.9824 31.6367 58.3516 31.8691ZM48.1523 35.3965C50.5723 36.0254 52.6231 37.1875 54.332 38.8828C56.2598 40.7832 57.5449 43.2031 58.1191 46.0059C58.3652 47.1953 58.3242 49.9023 58.0371 51.1328C57.6133 52.9238 57.6133 52.9922 58.0645 53.4434L58.4609 53.8398L60.1699 53.7715C61.7285 53.7031 61.9473 53.7168 62.8359 54.0312C65.2422 54.8652 66.9102 56.7109 67.4844 59.1445C68.291 62.6035 66.2402 66.1719 62.7539 67.3477C62.0293 67.5937 60.9766 67.6074 35 67.6074C12.6191 67.6074 7.90235 67.5801 7.45118 67.416C5.14063 66.6367 3.44532 65.0371 2.73438 62.9453C1.44922 59.2402 3.54102 55.1387 7.28711 53.9902C8.06641 53.7441 8.43555 53.7168 9.61133 53.7852C10.377 53.8262 11.2383 53.8945 11.5117 53.9492C11.9492 54.0176 12.0723 53.9766 12.4141 53.6348C12.7559 53.3066 12.8106 53.1152 12.8789 52.2266C13.1797 48.3848 15.5039 44.9258 18.9356 43.2168C22.5039 41.4395 26.4004 41.6309 29.8594 43.75C30.9805 44.4336 31.3906 44.543 31.8418 44.2969C31.9785 44.2285 32.4297 43.4766 32.8535 42.6289C34.8086 38.6504 38.2539 36.0117 42.4922 35.2051C43.9414 34.9316 46.7578 35.0273 48.1523 35.3965Z" fill="#0E2258"/>
<path d="M45.7324 10.418C45.4043 10.7188 45.3906 10.7871 45.3496 12.5234L45.3223 14.3281L44.6797 15.6133C43.9414 17.0625 43.873 17.5 44.3652 17.9785C45.1308 18.7578 46.0195 18.2383 46.8535 16.5293C47.5508 15.1211 47.7422 14.1094 47.6875 12.332C47.6465 10.8281 47.6328 10.7598 47.2637 10.4453C46.7851 10.0352 46.1973 10.0215 45.7324 10.418Z" fill="#0E2258"/>
<path d="M41.9043 37.4609C39.0742 38.0352 36.4629 40.5918 36.2578 42.998C36.2031 43.6406 36.2305 43.7363 36.5723 43.9961C36.7773 44.1602 37.1191 44.2969 37.3242 44.2969C37.7344 44.2969 38.418 43.832 38.418 43.5586C38.418 43.4629 38.6367 42.9434 38.9102 42.4102C39.6895 40.8379 40.8106 40.0586 42.752 39.7168C43.9277 39.5117 44.2969 39.2246 44.2969 38.5547C44.2969 37.9805 44.1738 37.748 43.7363 37.5293C43.3262 37.3105 42.7656 37.2969 41.9043 37.4609Z" fill="#0E2258"/>
<path d="M19.7969 45.9375C18.6621 46.5254 17.4453 47.7149 16.9531 48.7129C16.4473 49.7656 16.2285 51.1602 16.4746 51.7754C16.9531 52.9375 18.4434 52.6367 18.6621 51.3242C18.9355 49.6836 19.5645 48.7266 20.7949 48.0703C21.2051 47.8516 21.6699 47.5508 21.8477 47.4004C22.5313 46.7715 21.9844 45.5137 21.0273 45.5274C20.7813 45.541 20.2344 45.7188 19.7969 45.9375Z" fill="#0E2258"/>
<path d="M33.6465 51.625C30.4473 52.4863 28.2051 55.6445 28.4785 58.8984C28.6699 61.2637 29.6953 62.3984 30.8301 61.5098C31.1582 61.25 31.1855 61.1406 31.1309 60.5801C31.0898 60.2383 30.9941 59.6777 30.8984 59.3359C30.3516 57.2851 31.6914 54.7695 33.7422 54.0039C34.3711 53.7578 34.7402 53.7168 35.6836 53.7578C37.4199 53.8398 38.4727 54.4961 39.5527 56.1367C40.1953 57.1211 40.5234 57.1758 41.7402 56.5605C42.8203 56 43.6953 55.9043 44.7207 56.2187C45.3769 56.4101 46.2246 57.1211 46.6348 57.8047C47.0449 58.4883 47.2773 58.6523 47.8516 58.6523C48.5078 58.6523 48.9453 58.2012 48.9453 57.5449C48.9453 56.5605 47.4141 54.8379 45.9648 54.1816C44.8984 53.6894 42.9297 53.5937 41.8633 53.9629L41.1523 54.209L40.291 53.3887C38.541 51.6797 35.957 50.9961 33.6465 51.625Z" fill="#0E2258"/>
</g>
<defs>
<clipPath id="clip0_336_34">
<rect width="70" height="70" fill="white"/>
</clipPath>
</defs>
</svg>
