<svg width="75" height="75" viewBox="0 0 75 75" fill="none" xmlns="http://www.w3.org/2000/svg">
<path d="M43.8075 23.0139C44.1425 21.7636 43.4006 20.4785 42.1503 20.1434C40.9 19.8084 39.6147 20.5504 39.2797 21.8007L31.1916 51.9859C30.8566 53.2362 31.5984 54.5212 32.8487 54.8565C34.0991 55.1915 35.3844 54.4494 35.7194 53.199L43.8075 23.0139Z" fill="#ECF6FA"/>
<path d="M50.0947 26.4677C49.1794 25.5524 47.6956 25.5524 46.7803 26.4677C45.865 27.383 45.865 28.867 46.7803 29.7823L47.3162 30.3184C49.4466 32.4487 50.8741 33.8831 51.7978 35.0941C52.6803 36.2506 52.88 36.9241 52.88 37.5C52.88 38.0759 52.6803 38.7494 51.7978 39.9059C50.8741 41.1169 49.4466 42.5512 47.3162 44.6816L46.7803 45.2178C45.865 46.1331 45.865 47.6169 46.7803 48.5322C47.6956 49.4475 49.1794 49.4475 50.0947 48.5322L50.7459 47.8812C52.7313 45.8959 54.3869 44.2403 55.5244 42.7494C56.7253 41.1756 57.5675 39.5128 57.5675 37.5C57.5675 35.4872 56.7253 33.8244 55.5244 32.2506C54.3869 30.7596 52.7313 29.1041 50.7459 27.1188L50.0947 26.4677Z" fill="#ECF6FA"/>
<path d="M24.9058 26.4677C25.8211 25.5524 27.3051 25.5524 28.2204 26.4677C29.1357 27.383 29.1357 28.867 28.2204 29.7823L27.6842 30.3184C25.554 32.4487 24.1266 33.8831 23.2028 35.0941C22.3202 36.2506 22.1207 36.9241 22.1207 37.5C22.1207 38.0759 22.3202 38.7494 23.2028 39.9059C24.1266 41.1169 25.554 42.5512 27.6842 44.6816L28.2204 45.2178C29.1357 46.1331 29.1357 47.6169 28.2204 48.5322C27.3051 49.4475 25.8211 49.4475 24.9058 48.5322L24.2547 47.8812C22.2693 45.8959 20.6137 44.2403 19.4761 42.7494C18.2753 41.1756 17.4332 39.5128 17.4332 37.5C17.4332 35.4872 18.2753 33.8244 19.4761 32.2506C20.6137 30.7596 22.2693 29.1041 24.2547 27.1188L24.9058 26.4677Z" fill="#ECF6FA"/>
<path fill-rule="evenodd" clip-rule="evenodd" d="M37.3206 3.90625C30.107 3.90622 24.4537 3.90619 20.0428 4.49922C15.528 5.10622 11.9655 6.37291 9.16919 9.16919C6.37291 11.9655 5.10622 15.528 4.49922 20.0428C3.90619 24.4537 3.90622 30.107 3.90625 37.3206V37.6794C3.90622 44.8931 3.90619 50.5462 4.49922 54.9572C5.10622 59.4719 6.37291 63.0347 9.16919 65.8309C11.9655 68.6272 15.528 69.8937 20.0428 70.5009C24.4537 71.0938 30.107 71.0937 37.3206 71.0937H37.6794C44.8931 71.0937 50.5462 71.0938 54.9572 70.5009C59.4719 69.8937 63.0347 68.6272 65.8309 65.8309C68.6272 63.0347 69.8937 59.4719 70.5009 54.9572C71.0938 50.5462 71.0937 44.8931 71.0937 37.6794V37.3206C71.0937 30.107 71.0938 24.4537 70.5009 20.0428C69.8937 15.528 68.6272 11.9655 65.8309 9.16919C63.0347 6.37291 59.4719 5.10622 54.9572 4.49922C50.5462 3.90619 44.8931 3.90622 37.6794 3.90625H37.3206ZM12.4838 12.4838C14.2639 10.7036 16.6724 9.68203 20.6674 9.14491C24.7299 8.59872 30.0681 8.59375 37.5 8.59375C44.9319 8.59375 50.27 8.59872 54.3325 9.14491C58.3275 9.68203 60.7359 10.7036 62.5162 12.4838C64.2966 14.2639 65.3181 16.6724 65.855 20.6674C66.4012 24.7299 66.4062 30.0681 66.4062 37.5C66.4062 44.9319 66.4012 50.27 65.855 54.3325C65.3181 58.3275 64.2966 60.7359 62.5162 62.5162C60.7359 64.2966 58.3275 65.3181 54.3325 65.855C50.27 66.4012 44.9319 66.4062 37.5 66.4062C30.0681 66.4062 24.7299 66.4012 20.6674 65.855C16.6724 65.3181 14.2639 64.2966 12.4838 62.5162C10.7036 60.7359 9.68203 58.3275 9.14491 54.3325C8.59872 50.27 8.59375 44.9319 8.59375 37.5C8.59375 30.0681 8.59872 24.7299 9.14491 20.6674C9.68203 16.6724 10.7036 14.2639 12.4838 12.4838Z" fill="#ECF6FA"/>
</svg>
