<svg width="55" height="55" viewBox="0 0 55 55" fill="none" xmlns="http://www.w3.org/2000/svg">
<path d="M51.3122 31.1352C51.3122 30.4629 50.8032 30.1268 49.7852 30.1268H18.439C17.6707 30.1268 16.8496 30.3333 15.9756 30.7462C15.1017 31.1592 14.4151 31.6634 13.9157 32.2588L5.44525 42.7172C5.09953 43.1781 4.92667 43.5623 4.92667 43.8696C4.92667 44.5418 5.43566 44.878 6.45363 44.878H37.7999C38.5682 44.878 39.3941 44.6667 40.2777 44.2441C41.1612 43.8216 41.8431 43.3126 42.3232 42.7172L50.7936 32.2588C51.1394 31.8362 51.3122 31.4617 51.3122 31.1351L51.3122 31.1352ZM18.439 26.439H40.5657V21.8292C40.5657 21.0609 40.2968 20.4079 39.759 19.8701C39.2212 19.3323 38.5682 19.0634 37.7999 19.0634H21.2048C20.4365 19.0634 19.7835 18.7945 19.2457 18.2567C18.7079 17.7189 18.439 17.0658 18.439 16.2975V14.4537C18.439 13.6854 18.1701 13.0323 17.6323 12.4945C17.0945 11.9567 16.4414 11.6878 15.6732 11.6878H6.45363C5.68535 11.6878 5.03231 11.9567 4.4945 12.4945C3.9567 13.0323 3.68779 13.6854 3.68779 14.4537V39.0294L11.0634 29.9539C11.9085 28.936 13.0225 28.0956 14.4054 27.433C15.7884 26.7703 17.1329 26.439 18.439 26.439ZM55 31.1352C55 32.326 54.5582 33.4785 53.6747 34.5925L45.1755 45.0508C44.3496 46.0688 43.2356 46.9091 41.8334 47.5718C40.4313 48.2344 39.0868 48.5658 37.7999 48.5658H6.45363C4.68657 48.5658 3.1692 47.9319 1.90152 46.6642C0.63384 45.3965 0 43.8792 0 42.1121V14.4537C0 12.6866 0.63384 11.1692 1.90152 9.90152C3.1692 8.63384 4.68657 8 6.45363 8H15.6732C17.4402 8 18.9576 8.63384 20.2253 9.90152C21.4929 11.1692 22.1268 12.6866 22.1268 14.4537V15.3756H37.7999C39.567 15.3756 41.0844 16.0094 42.3521 17.2771C43.6197 18.5448 44.2536 20.0622 44.2536 21.8292V26.439H49.7853C50.8224 26.439 51.7732 26.6743 52.6375 27.1448C53.5019 27.6154 54.1453 28.2925 54.5679 29.176C54.856 29.7906 55 30.4437 55 31.1352Z" fill="#0E2258"/>
</svg>
