<svg width="67" height="75" viewBox="0 0 67 75" fill="none" xmlns="http://www.w3.org/2000/svg">
<path d="M62.5042 47.4762V27.5238C64.9764 26.7656 66.7856 24.4929 66.7856 21.7717C66.7856 18.4333 64.0793 15.7282 60.742 15.7282C59.1497 15.7282 57.7112 16.3569 56.6316 17.3641L39.3777 7.40186C39.4786 6.96372 39.5441 6.51284 39.5441 6.04365C39.5441 2.70527 36.8378 0 33.5006 0C30.1634 0 27.4569 2.70527 27.4569 6.04365C27.4569 6.51284 27.5224 6.96372 27.6233 7.40186L10.3682 17.3643C9.28862 16.357 7.85 15.7283 6.25756 15.7283C2.92036 15.7283 0.214203 18.4334 0.214203 21.7718C0.214203 24.4929 2.02343 26.7656 4.4955 27.524V47.4763C2.02343 48.2345 0.214203 50.5072 0.214203 53.2285C0.214203 56.5668 2.92036 59.272 6.25756 59.272C7.85117 59.272 9.28862 58.6433 10.3682 57.636L27.6222 67.5984C27.5211 68.0366 27.4558 68.4874 27.4558 68.9566C27.4558 72.295 30.1621 75.0003 33.4993 75.0003C36.8365 75.0003 39.5428 72.295 39.5428 68.9566C39.5428 68.4874 39.4774 68.0355 39.3764 67.5973L56.6305 57.636C57.7101 58.6433 59.1487 59.272 60.742 59.272C64.0793 59.272 66.7856 56.5668 66.7856 53.2285C66.7858 50.5071 64.9764 48.2344 62.5042 47.4762ZM31.7374 63.2045C30.8505 63.4764 30.0499 63.9318 29.3891 64.5489L12.135 54.5865C12.2359 54.1482 12.3014 53.6963 12.3014 53.2283C12.3014 50.5072 10.4921 48.2345 8.01992 47.4762V27.5238C8.90673 27.252 9.70756 26.7965 10.3684 26.1794L27.6223 36.1417C27.5212 36.5799 27.4559 37.0308 27.4559 37.5C27.4559 40.2211 29.265 42.4938 31.7374 43.2521V63.2045ZM29.3889 33.0923L12.1348 23.13C12.2357 22.6917 12.3012 22.2409 12.3012 21.7717C12.3012 21.3025 12.2357 20.8516 12.1348 20.4135L29.3901 10.4511C30.4695 11.4583 31.9081 12.087 33.5004 12.087C35.0927 12.087 36.5313 11.4583 37.6109 10.4511L54.8649 20.4135C54.764 20.8518 54.6985 21.3025 54.6985 21.7717C54.6985 22.2398 54.764 22.6917 54.8649 23.13L37.6086 33.0913C36.529 32.0851 35.0917 31.4565 33.4993 31.4565C31.9068 31.4565 30.4685 32.0851 29.3889 33.0923ZM58.9799 47.4762C56.5077 48.2344 54.6986 50.5071 54.6986 53.2283C54.6986 53.6963 54.7641 54.1484 54.865 54.5865L37.6099 64.5489C36.9479 63.9316 36.1483 63.4762 35.2616 63.2045V43.2521C37.7338 42.4938 39.5429 40.2211 39.5429 37.5C39.5429 37.0308 39.4776 36.5799 39.3765 36.1417L56.6318 26.1794C57.2926 26.7967 58.0933 27.2521 58.9801 27.5238V47.4762H58.9799Z" fill="#0E2258"/>
</svg>
