<svg width="55" height="55" viewBox="0 0 55 55" fill="none" xmlns="http://www.w3.org/2000/svg">
<path d="M37.8125 32.058V25.3135C37.8077 25.1721 37.7695 25.0339 37.701 24.9101C37.6326 24.7863 37.5357 24.6805 37.4185 24.6013C37.3012 24.5221 37.1669 24.4719 37.0265 24.4546C36.8861 24.4373 36.7436 24.4535 36.6107 24.5019L21.5542 30.5078H14.1185C13.4161 30.5109 12.7274 30.7029 12.1248 31.0637C11.5221 31.4245 11.0276 31.9408 10.6931 32.5585L10.0462 32.7909C9.18588 33.0917 8.44037 33.6526 7.91288 34.3958C7.3854 35.139 7.10204 36.0279 7.10204 36.9393C7.10204 37.8507 7.3854 38.7395 7.91288 39.4828C8.44037 40.226 9.18588 40.7868 10.0462 41.0876L10.4832 41.2409C10.8331 42.1369 11.5001 42.873 12.3573 43.3093L13.9079 53.3285C13.938 53.5331 14.0391 53.7207 14.1935 53.8585C14.3478 53.9962 14.5457 54.0753 14.7525 54.082L20.9077 54.1406H20.9124C21.0378 54.1358 21.1607 54.1044 21.273 54.0484C21.3853 53.9925 21.4845 53.9133 21.5639 53.8161C21.6453 53.7181 21.705 53.604 21.739 53.4813C21.7731 53.3586 21.7807 53.23 21.7613 53.1042L20.292 43.7207H21.5542L36.6029 49.7457C36.7042 49.7873 36.8126 49.8092 36.9221 49.8102C37.0986 49.8108 37.2714 49.7599 37.4194 49.6638C37.5377 49.5861 37.6352 49.4809 37.7037 49.3571C37.7722 49.2334 37.8095 49.0948 37.8125 48.9534V41.829C40.3906 41.7752 42.6014 39.6053 42.6014 36.9435C42.6014 34.2817 40.3906 32.1111 37.8125 32.058ZM8.80741 36.943C8.80589 36.4617 8.93511 35.9891 9.18128 35.5756C9.42745 35.1621 9.78131 34.8232 10.2051 34.5952V39.2919C9.78119 39.0637 9.42726 38.7246 9.18109 38.3109C8.93492 37.8972 8.80577 37.4244 8.80741 36.943ZM11.9238 34.4351C11.9265 33.8526 12.1581 33.2945 12.5687 32.8812C12.9793 32.468 13.536 32.2329 14.1185 32.2265H20.8398V42.0019H14.1185C13.9263 42.0031 13.7349 41.9788 13.5491 41.9296C13.4556 41.8791 13.3537 41.8458 13.2483 41.8313C12.8567 41.6634 12.5227 41.3847 12.2874 41.0295C12.0521 40.6743 11.9257 40.2581 11.9238 39.832V34.4351ZM19.907 52.3598L15.4945 52.3334L14.162 43.7207H18.5523L19.907 52.3598ZM36.0938 47.6845L22.5586 42.2906V31.9763L36.0938 26.5829V47.6845ZM37.8125 40.1106V33.7767C38.6352 33.8025 39.4155 34.1475 39.9883 34.7385C40.5612 35.3296 40.8815 36.1204 40.8815 36.9435C40.8815 37.7666 40.5612 38.5573 39.9883 39.1484C39.4155 39.7395 38.6352 40.0844 37.8125 40.1102V40.1106Z" fill="#0E2258"/>
<path d="M47.0385 0.859375H20.2842C19.8096 0.859375 19.4434 1.29508 19.4434 1.76978V3.11523H9.49405C9.01936 3.11523 8.59375 3.49121 8.59375 3.96612V22.2538C8.59375 22.7285 9.01936 23.0957 9.49405 23.0957H14.3945V25.3831C14.3992 25.5409 14.4461 25.6945 14.5304 25.8279C14.6147 25.9614 14.7332 26.0697 14.8736 26.1418C15.0021 26.2081 15.1446 26.2426 15.2892 26.2425C15.4629 26.2395 15.6318 26.1855 15.775 26.0874L20.2124 23.0957H30.812C31.04 23.1003 31.2605 23.0142 31.425 22.8564C31.5895 22.6985 31.6846 22.4818 31.6895 22.2538V18.9062H37.7133L43.2203 24.3263C43.3007 24.4034 43.3954 24.4638 43.4992 24.5042C43.6029 24.5445 43.7136 24.564 43.8249 24.5615C44.0538 24.5565 44.2719 24.4627 44.4329 24.2998C44.5939 24.137 44.6852 23.9179 44.6875 23.6889V18.9062H47.0385C47.5131 18.9062 47.9102 18.4686 47.9102 17.994V1.76978C47.9102 1.29508 47.5127 0.859375 47.0385 0.859375ZM29.9707 21.377H19.9501C19.7709 21.3799 19.5963 21.4338 19.4466 21.5322L16.1133 23.7688V22.2542C16.1133 21.7796 15.7757 21.3773 15.3011 21.3773H10.3125V4.83398H19.4434V17.994C19.4434 18.4686 19.8096 18.9062 20.2842 18.9062H29.9707V21.377ZM46.1914 17.1875H43.8247C43.35 17.1875 42.9688 17.5193 42.9688 17.994V21.6303L38.6726 17.4094C38.5912 17.3343 38.4958 17.276 38.3918 17.2379C38.2877 17.1998 38.1772 17.1827 38.0666 17.1875H21.1621V2.57812H46.1914V17.1875Z" fill="#0E2258"/>
</svg>
