<svg width="55" height="55" viewBox="0 0 55 55" fill="none" xmlns="http://www.w3.org/2000/svg">
<path d="M51.3074 30.0243C51.5353 30.0243 51.7539 29.9338 51.915 29.7726C52.0762 29.6114 52.1667 29.3929 52.1667 29.1649V25.2172C52.1667 24.9893 52.0762 24.7707 51.915 24.6095C51.7539 24.4483 51.5353 24.3578 51.3074 24.3578H47.3764V22.6895C47.3764 22.5767 47.3542 22.4649 47.311 22.3607C47.2678 22.2564 47.2045 22.1617 47.1247 22.0819L43.9936 18.9507C44.1457 18.6234 44.2243 18.2668 44.2241 17.9058C44.2241 16.5323 43.1067 15.4149 41.7332 15.4149C40.3597 15.4149 39.2423 16.5323 39.2423 17.9058C39.2423 19.2793 40.3597 20.3967 41.7332 20.3967C42.1063 20.3967 42.4601 20.3137 42.7781 20.1661L45.6575 23.0454V24.3577H28.3594V23.3233H35.8235C36.7739 23.3233 37.6182 22.9096 38.2005 22.1586C38.7829 21.4075 38.9733 20.4869 38.7365 19.5664C37.7303 15.6534 34.7977 12.6437 31.1092 11.4381C32.7291 10.2989 33.7906 8.41683 33.7906 6.29052C33.7907 2.82197 30.9687 0 27.5 0C24.0313 0 21.2094 2.82197 21.2094 6.29063C21.2094 8.41704 22.2709 10.2991 23.8907 11.4382C20.2023 12.6438 17.2697 15.6535 16.2633 19.5665C16.0266 20.487 16.2169 21.4077 16.7994 22.1587C17.3817 22.9098 18.2259 23.3234 19.1764 23.3234H26.6406V24.3578H9.34237V23.0455L12.2218 20.1662C12.5491 20.3183 12.9058 20.397 13.2667 20.3967C14.6401 20.3967 15.7576 19.2793 15.7576 17.9058C15.7576 16.5323 14.64 15.415 13.2666 15.415C11.8932 15.415 10.7757 16.5324 10.7757 17.9059C10.7757 18.279 10.8587 18.6329 11.0063 18.9508L7.8752 22.082C7.79541 22.1618 7.73211 22.2565 7.68892 22.3608C7.64574 22.465 7.62351 22.5768 7.62352 22.6896V24.3579H3.69263C3.46471 24.3579 3.24612 24.4485 3.08496 24.6096C2.92379 24.7708 2.83325 24.9894 2.83325 25.2173V29.165C2.83325 29.393 2.92379 29.6115 3.08496 29.7727C3.24612 29.9339 3.46471 30.0244 3.69263 30.0244H10.4065V49.3335H3.69263C3.46471 49.3335 3.24612 49.424 3.08496 49.5852C2.92379 49.7464 2.83325 49.965 2.83325 50.1929V54.1406C2.83325 54.3685 2.92379 54.5871 3.08496 54.7483C3.24612 54.9095 3.46471 55 3.69263 55H51.3074C51.5353 55 51.7539 54.9095 51.915 54.7483C52.0762 54.5871 52.1667 54.3685 52.1667 54.1406V50.1929C52.1667 49.965 52.0762 49.7464 51.915 49.5852C51.7539 49.424 51.5353 49.3335 51.3074 49.3335H44.5935V30.0243H51.3074ZM41.7333 18.678C41.3076 18.678 40.9611 18.3316 40.9611 17.9058C40.9611 17.48 41.3076 17.1337 41.7333 17.1337C42.159 17.1337 42.5054 17.48 42.5054 17.9058C42.5054 18.3316 42.159 18.678 41.7333 18.678ZM22.9281 6.29063C22.9281 3.76965 24.979 1.71875 27.5 1.71875C30.021 1.71875 32.072 3.76965 32.072 6.29063C32.072 8.81117 30.0216 10.8619 27.5012 10.8625H27.499C24.9785 10.8619 22.9281 8.81117 22.9281 6.29063ZM19.1765 21.6047C18.7574 21.6047 18.4146 21.4368 18.1578 21.1055C17.9009 20.7743 17.8238 20.4005 17.9281 19.9946C19.0504 15.6301 22.9861 12.5818 27.4989 12.5814H27.5011C32.014 12.5819 35.9497 15.6302 37.0719 19.9946C37.1763 20.4006 37.0991 20.7743 36.8422 21.1056C36.5853 21.4368 36.2426 21.6048 35.8235 21.6048H28.3594V20.244C29.3106 19.8931 29.9909 18.9776 29.9909 17.906C29.9909 16.5325 28.8735 15.4151 27.5 15.4151C26.1265 15.4151 25.0091 16.5325 25.0091 17.906C25.0091 18.9776 25.6893 19.8932 26.6406 20.244V21.6048H19.1765V21.6047ZM26.728 17.9059C26.728 17.4802 27.0744 17.1338 27.5001 17.1338C27.9258 17.1338 28.2723 17.4801 28.2723 17.9059C28.2723 18.3318 27.9258 18.6781 27.5001 18.6781C27.0744 18.6781 26.728 18.3317 26.728 17.9059ZM13.2666 17.1338C13.6923 17.1338 14.0388 17.4801 14.0388 17.9059C14.0388 18.3318 13.6923 18.6781 13.2666 18.6781C12.8409 18.6781 12.4945 18.3318 12.4945 17.9059C12.4945 17.4801 12.8409 17.1338 13.2666 17.1338ZM4.552 26.0766H50.448V28.3056H4.552V26.0766ZM50.448 53.2812H4.552V51.0522H50.448V53.2812ZM42.8748 49.3335H12.1252V30.0243H42.8748V49.3335ZM17.6709 44.2845H37.3291C37.557 44.2845 37.7756 44.1939 37.9368 44.0327C38.0979 43.8716 38.1885 43.653 38.1885 43.4251V35.5296C38.1885 35.3016 38.0979 35.0831 37.9368 34.9219C37.7756 34.7607 37.557 34.6702 37.3291 34.6702H17.6709C17.443 34.6702 17.2244 34.7607 17.0632 34.9219C16.9021 35.0831 16.8115 35.3016 16.8115 35.5296V43.4251C16.8115 43.653 16.9021 43.8716 17.0632 44.0327C17.2244 44.1939 17.443 44.2845 17.6709 44.2845ZM18.5303 36.3889H36.4697V42.5657H18.5303V36.3889Z" fill="#0E2258"/>
</svg>
